<svg xmlns="http://www.w3.org/2000/svg" viewBox="0 0 800 450" role="img" aria-labelledby="title desc">
  <title id="title">Imagen provisional del juego de dados</title>
  <desc id="desc">Dados digitales sobre un fondo verde oscuro con estilo de terminal.</desc>
  <rect width="800" height="450" fill="#0b1b11"/>
  <path d="M0 80h800M0 160h800M0 240h800M0 320h800M0 400h800M80 0v450M160 0v450M240 0v450M320 0v450M400 0v450M480 0v450M560 0v450M640 0v450M720 0v450" stroke="#102519" stroke-width="1"/>
  <rect x="260" y="123" width="112" height="112" rx="12" fill="#06110c" stroke="#55ff78" stroke-width="4" transform="rotate(-12 316 179)"/>
  <rect x="427" y="201" width="112" height="112" rx="12" fill="#06110c" stroke="#55ff78" stroke-width="4" transform="rotate(9 483 257)"/>
  <g fill="#a0ffad">
    <circle cx="292" cy="158" r="8"/><circle cx="340" cy="200" r="8"/><circle cx="340" cy="158" r="8"/>
    <circle cx="459" cy="233" r="8"/><circle cx="507" cy="233" r="8"/><circle cx="459" cy="281" r="8"/><circle cx="507" cy="281" r="8"/>
  </g>
  <text x="400" y="380" fill="#55ff78" font-family="monospace" font-size="22" text-anchor="middle">IMG / JUEGO DE DADOS</text>
</svg>
